# xmcd
#
# Track frame offsets:
# 150
# 16770
# 36026
# 60007
# 86934
# 113524
# 133493
# 143756
# 163040
#
# Disc length: 2371 seconds
#
#
# Revision: 0
# Processed by: cddbd v1.5.1PL0 Copyright (c) Steve Scherf et al.
# Submitted via: FreeRIP 2.92 
#
DISCID=6d094109
DTITLE=Oliver Magnum - Oliver Magnum
DYEAR=1989
DGENRE=Metal
TTITLE0=Sister Cybelle
TTITLE1=The last prophet
TTITLE2=Old world nites
TTITLE3=Evilution
TTITLE4=Trapped
TTITLE5=Mendes Prey
TTITLE6=Tongue Tied
TTITLE7=Silent Scream (Prelude to death)
TTITLE8=-Unknown--!
EXTD=
EXTT0=
EXTT1=
EXTT2=
EXTT3=
EXTT4=
EXTT5=
EXTT6=
EXTT7=
EXTT8=
PLAYORDER=
